<svg xmlns="http://www.w3.org/2000/svg" viewBox="0 0 800 600">
<!-- © 2026 SIKUMI LAB — SITE BASE --><rect width="800" height="600" fill="#f1ece3"/><ellipse cx="400" cy="500" rx="147" ry="23" fill="#dcd1be"/><path d="M350 225h100l-7 73q82 70 57 157t-100 51q-117 6-98-73t55-129z" fill="#fdfaf2" stroke="#a49375" stroke-width="6"/><ellipse cx="400" cy="225" rx="50" ry="12" fill="#c3b296"/><path d="M402 225q1-98 49-148m-48 145q-37-82-81-91" fill="none" stroke="#557e61" stroke-width="6"/><path d="M436 104q-14-64 45-56 2 46-45 56m-97 39q-68 5-62-37 61-11 62 37m74 24q40-55 70-17-28 33-70 17" fill="#86a37e"/></svg>
